<?xml version="1.0" encoding="UTF-8"?>
<svg id="Camada_2" data-name="Camada 2" xmlns="http://www.w3.org/2000/svg" viewBox="0 0 752.72 482.92">
  <defs>
    <style>
      .cls-1 {
        fill: #afc836;
        stroke: #afc836;
        stroke-miterlimit: 10;
      }

      .cls-2 {
        fill: #3fa9f5;
        stroke-width: 0px;
      }
    </style>
  </defs>
  <g id="Camada_1-2" data-name="Camada 1">
    <rect class="cls-1" x="662.4" y=".5" width="85.75" height="343.15"/>
    <rect class="cls-2" x="546.98" y="130.97" width="85.75" height="343.15"/>
    <circle class="cls-1" cx="592.14" cy="55.7" r="50.18"/>
    <circle class="cls-2" cx="702.54" cy="422.02" r="50.18"/>
    <path class="cls-2" d="m115.42,346.75c60.22,25.09,30.11,120.44-90.33,50.18L0,462.17c110.4,45.16,230.84,15.05,230.84-75.27,1.37-54.95-26.75-91.94-85.31-110.4-80.29-25.09-60.22-115.42,55.2-65.24l20.07-65.24S25.09,75.77,10.04,241.37c-.22,39.86,33.15,75.23,105.38,105.38Z"/>
    <path class="cls-2" d="m519.08,326.68c17.41-69.89.56-138.13-44.4-171.36-35.07-25.92-78.33-24.76-93.3-24.35-15.4.42-62.47,1.72-100.36,35.13-57.91,51.06-48,136.2-45.16,160.58,2.51,21.61,6.68,58.63,30.56,89.71,39.94,51.99,118.83,82.42,235.4,45.78-5.02-25.09-5.02-35.13-10.04-65.24-80.29,30.11-174.38,12.41-170.62-70.25h197.92Zm-202.94-55.2c.34-48.83,20.07-80.29,65.24-80.29s60.22,25.09,62.14,80.29h-127.37Z"/>
  </g>
</svg>