<svg width="400" height="574" viewBox="0 0 400 574" fill="none" xmlns="http://www.w3.org/2000/svg">
<path d="M361.466 92.3043C362.119 90.706 360.814 89.9069 360.814 89.9069C360.814 89.9069 366.033 85.9111 366.685 85.112C367.338 84.3128 366.685 83.5137 366.685 83.5137L369.295 80.8125C369.295 80.8125 369.947 75.5221 369.295 75.5221C368.643 75.5221 368.643 74.0197 368.643 74.0197V66.7314L366.033 57.1416L363.423 57.9407L362.771 52.3467L341.242 33.9661L351.028 29.1712L350.376 16.3848L348.418 17.9831L345.809 16.3848L344.504 19.5814H340.59L337.98 15.5856L334.718 17.1839L330.152 22.778L323.628 16.3848L315.147 13.9873L311.885 9.19238H302.099L294.923 2L280.57 10.7907C279.344 14.8983 277.028 18.5665 274.046 21.9788L271.437 20.3805L264.26 25.1755L260.998 24.3763L245.341 34.7653L242.079 41.1585C240.598 39.76 238.328 39.4723 235.555 39.8879V44.3551L227.727 48.3509L228.379 56.3424C227.165 56.6541 226.076 57.717 225.117 59.5391C225.267 61.8007 225.848 62.7117 226.768 62.5918V66.7314L217.288 67.5306L212.722 77.9196C212.722 77.9196 211.417 78.7187 203.588 78.7187C203.588 76.3213 197.717 70.7272 197.717 70.7272L192.498 73.1247L188.583 72.3255L187.278 67.5306L181.407 68.3297L180.755 72.3255L178.145 73.1247L173.461 66.7314H170.969L169.012 69.1289L170.316 74.723L159.226 81.9154L153.354 79.5179L148.135 90.706C148.135 90.706 144.873 92.3043 134.435 97.0993C122.692 98.6976 116.168 105.091 116.168 105.091L109.644 114.681L94.6392 122.672L92.0297 132.262L86.8105 136.258L80.2867 137.057L56.1483 173.019L67.2389 195.395C74.4152 182.609 82.8962 184.207 82.8962 184.207L106.382 158.634C111.804 160.025 118.96 156.101 126.606 150.643L136.392 141.852V158.634C138.858 164.388 137.136 167.177 131.825 167.425C132.53 173.051 131.93 176.207 130.521 177.814L131.825 182.609C136.679 183.08 139.941 184.854 142.264 187.404C147.359 186.333 150.21 187.108 150.745 189.801L157.269 204.985C155.722 207.422 155.546 209.812 155.964 212.177C160.661 212.793 163.264 215.702 164.445 220.169L173.578 216.173L180.102 217.771C173.278 225.627 168.881 233.179 169.012 240.148C160.302 241.93 154.731 245.814 154.007 252.934C151.965 254.085 150.914 255.699 150.745 257.729L163.14 265.721C172.684 258.352 174.231 272.114 180.102 276.11C186.104 276.461 191.245 277.884 195.107 280.905L205.545 280.105V283.302C203.112 284.741 199.778 285.204 195.825 284.996C191.369 290.287 184.93 293.747 178.145 296.888C178.602 300.955 174.061 308.148 168.359 316.067C171.778 317.482 173.526 320.023 174.231 323.26L170.316 328.854V333.649L172.926 335.247C172.273 339.243 168.359 349.632 165.097 352.828L181.407 360.021C177.747 368.012 176.631 374.853 177.493 380.799C174.7 380.887 172.104 382.589 169.664 385.594C167.655 383.756 165.71 384.571 163.792 386.393L154.659 384.795C145.741 392.93 139.667 391.348 135.74 382.397L133.783 381.598C129.777 385.386 125.654 386.337 121.387 383.995C112.828 384.811 105.071 384.842 99.8583 382.397C94.6392 372.008 85.0882 369.275 75.8374 377.203L74.4152 397.581C68.9873 404.821 64.0161 410.759 60.715 411.966L59.4102 415.962C61.8241 422.099 63.4811 427.685 63.3245 431.945L50.2768 433.543C50.9292 443.932 54.8435 452.723 53.5387 461.513C54.9283 463.231 55.1893 468.913 54.8435 476.697C60.4997 486.982 68.4849 499.169 65.2817 502.27C57.8249 513.946 41.476 528.163 22.8764 543.027L3.30478 548.621L2 568.6C3.59835 571.741 6.66458 572.404 10.4811 571.796C16.5352 570.102 21.7609 567.177 26.1384 563.006C33.8888 551.945 49.6309 559.977 65.2817 567.801C82.4526 563.941 99.8583 557.412 103.773 564.604L109.644 527.044C135.479 514.353 184.238 503.077 234.25 491.881L233.598 487.885L227.074 486.287L231.641 471.103L245.993 464.71C251.219 463.783 252.622 460.267 249.255 453.522L251.865 445.53C255.91 444.076 258.715 441.391 260.346 437.539L265.565 435.94C269.205 438.937 271.437 437.659 272.741 433.543C275.638 433.934 277.484 432.4 278.613 429.547C284.778 428.524 289.11 426.382 290.356 422.355L298.185 419.158L302.751 414.363C304.748 414.371 306.966 412.022 309.275 408.625C311.193 410.567 313.157 410.759 315.147 410.367C319.739 404.661 323.014 404.893 324.932 411.167C328.449 411.702 331.926 411.111 335.371 409.568L330.804 406.372C336.336 392.69 334.699 384.051 324.28 381.598C318.839 369.946 313.933 354.611 309.275 337.644C313.724 333.641 316.36 328.334 317.104 321.661L322.975 320.063C325.924 319 325.513 313.254 324.932 307.277L328.194 304.08C330.399 304.232 331.456 302.234 332.109 299.477C337.289 301.81 339.605 299.221 339.285 292.093L342.547 288.097C350.323 290.375 356.286 289.344 359.509 283.302C362.66 284.972 365.485 284.405 367.99 281.704C369.849 285.851 374.22 284.341 379.081 281.704C380.072 284.956 381.795 286.331 384.3 285.699C387.32 289.735 389.891 288.72 392.129 284.101L393.433 276.11C395.854 274.224 397.4 270.276 398 264.122L388.867 250.537C378.03 246.861 368.088 242.913 364.728 236.951C358.55 236.488 354.368 232.58 352.333 224.964C350.839 222.079 350.441 219.146 351.028 216.173L373.862 183.408C376.7 180.707 377.287 177.542 375.166 173.818C377.665 166.154 377.541 161.167 371.904 161.831C371.904 154.638 360.161 149.044 355.595 148.245C353.337 149.044 352.333 145.048 350.376 144.249C348.418 143.45 346.461 147.446 346.461 147.446L343.199 145.848C342.547 143.45 339.285 145.048 339.285 145.048C339.285 145.048 338.633 142.651 336.675 137.057C339.285 133.061 334.718 129.065 334.718 129.065L332.109 120.275C332.109 120.275 333.414 118.676 334.066 116.279C336.023 116.279 337.328 113.881 337.328 113.881C337.328 113.881 341.242 112.283 342.547 111.484C343.852 110.685 343.199 109.087 343.199 109.087L349.723 108.287L356.9 96.3001L361.466 92.3043Z" stroke="#433F87" stroke-width="3" stroke-miterlimit="10"/>
</svg>
